<svg xmlns="http://www.w3.org/2000/svg" viewBox="0 0 420 120" role="img" aria-label="LHC">
  <defs>
    <linearGradient id="logoBg" x1="0" y1="0" x2="1" y2="1">
      <stop offset="0%" stop-color="#0C6EFC"/>
      <stop offset="100%" stop-color="#081B44"/>
    </linearGradient>
    <linearGradient id="logoSteam" x1="0" y1="0" x2="0" y2="1">
      <stop offset="0%" stop-color="#D9ECFF"/>
      <stop offset="100%" stop-color="#FFFFFF"/>
    </linearGradient>
  </defs>
  <rect width="420" height="120" rx="24" fill="url(#logoBg)"/>
  <path d="M43 33c-5 7-5 14 0 21m18-25c-5 8-5 16 0 24m18-20c-5 7-5 14 0 21" fill="none" stroke="url(#logoSteam)" stroke-linecap="round" stroke-width="6"/>
  <path d="M31 57h67a7 7 0 0 1 7 7v5a25 25 0 0 1-25 25H49A25 25 0 0 1 24 69v-5a7 7 0 0 1 7-7Z" fill="#FFFFFF"/>
  <path d="M101 62h10c6 0 10 4 10 9s-4 9-10 9h-9" fill="none" stroke="#FFFFFF" stroke-linecap="round" stroke-linejoin="round" stroke-width="6"/>
  <path d="m46 78 8-9 8 9 8-9 8 9" fill="none" stroke="#0C6EFC" stroke-linecap="round" stroke-linejoin="round" stroke-width="5"/>
  <text x="154" y="52" fill="#ffffff" font-family="Arial, Helvetica, sans-serif" font-size="30" font-weight="700">LHC</text>
  <text x="154" y="81" fill="#DDEBFF" font-family="Arial, Helvetica, sans-serif" font-size="20">Let Him Cook</text>
  <text x="154" y="101" fill="#9FC5FF" font-family="Arial, Helvetica, sans-serif" font-size="12" letter-spacing="1.8">WIX ENGINEERING COPILOT</text>
</svg>
